<svg xmlns="http://www.w3.org/2000/svg" xmlns:xlink="http://www.w3.org/1999/xlink" x="0" y="0" viewBox="0 0 223 87" xml:space="preserve" enable-background="new 0 0 223 87">
    <style>
        .st1,.st3{fill-rule:evenodd;clip-rule:evenodd;fill:#fff}.st3{fill:#00d050}
    </style>
    <g transform="translate(0 38.573)">
        <defs>
            <filter id="Adobe_OpacityMaskFilter" filterUnits="userSpaceOnUse" x="0" y=".2" width="44.2" height="47.2">
                <feColorMatrix values="1 0 0 0 0 0 1 0 0 0 0 0 1 0 0 0 0 0 1 0"/>
            </filter>
        </defs>
        <mask maskUnits="userSpaceOnUse" x="0" y=".2" width="44.2" height="47.2" id="logo-po-b_1_">
            <g filter="url(#Adobe_OpacityMaskFilter)">
                <path id="logo-po-a_1_" class="st1" d="M0 .2h44.2v47.2H0z"/>
            </g>
        </mask>
        <path d="M13 21.9c-.9 4.4-.8 7.9.1 10.4 1 2.5 3.1 4.1 6.3 4.8 3.2.7 5.7 0 7.6-1.9 1.9-1.9 3.2-5.1 4.1-9.5.9-4.4.8-7.8-.1-10.3-1-2.5-3.1-4.1-6.3-4.7-3.2-.7-5.8 0-7.6 1.9-1.9 1.7-3.2 4.9-4.1 9.3m30.5 6.2C42 35.4 39 40.6 34.4 43.9c-4.6 3.3-10.3 4.3-17.1 2.9-4.2-.9-7.8-2.6-10.7-5.1-2.9-2.5-4.8-5.7-5.8-9.6-1-3.8-1.1-8.1-.1-12.8 1.4-7.1 4.5-12.4 9-15.6C14.3.4 20-.5 26.8.9c4.2.9 7.8 2.6 10.7 5.1 2.9 2.5 4.8 5.7 5.9 9.5 1 3.8 1 8 .1 12.6" mask="url(#logo-po-b_1_)" fill-rule="evenodd" clip-rule="evenodd" fill="#00d050"/>
    </g>
    <path class="st3" d="M80.4 54.5v31H69.7v-23h-8v23H51v-31zM118.9 85.5h-10.7v-23h-6.3c-.6 6.7-1.4 11.5-2.3 14.7-.9 3.1-2.2 5.4-3.8 6.8-1.6 1.4-3.8 2.1-6.5 2.1-1.9 0-3.5-.3-4.8-.8v-8c.6.3 1.4.5 2.4.5.8 0 1.5-.4 2-1.3.5-.8 1-2.2 1.4-4.1.4-1.9.7-4.2 1.1-7.2.3-2.9.6-6.5.9-10.7h26.6v31z"/>
    <g transform="translate(124.5 53.573)">
        <defs>
            <filter id="Adobe_OpacityMaskFilter_1_" filterUnits="userSpaceOnUse" x=".2" y=".4" width="29.3" height="32.1">
                <feColorMatrix values="1 0 0 0 0 0 1 0 0 0 0 0 1 0 0 0 0 0 1 0"/>
            </filter>
        </defs>
        <mask maskUnits="userSpaceOnUse" x=".2" y=".4" width="29.3" height="32.1" id="logo-po-d_1_">
            <g filter="url(#Adobe_OpacityMaskFilter_1_)">
                <path id="logo-po-c_1_" class="st1" d="M.2.4h29.2v32.1H.2z"/>
            </g>
        </mask>
        <path d="M14.1 25c1.3 0 2.4-.4 3.3-1.2.9-.8 1.4-1.9 1.4-3.2v-2.4l-2.5.1c-3.5.1-5.3 1.4-5.3 3.9.1 1.8 1.1 2.8 3.1 2.8zm7.9 7l-2-4.1h-.2c-1.4 1.8-2.9 3-4.4 3.7-1.5.7-3.4 1-5.8 1-2.9 0-5.2-.9-6.9-2.6C1 28.2.2 25.8.2 22.6c0-3.3 1.1-5.8 3.4-7.4 2.3-1.6 5.6-2.5 10-2.7l5.2-.2v-.4C18.8 9.2 17.5 8 15 8c-2.3 0-5.1.8-8.6 2.3L3.3 3.2C6.9 1.3 11.5.4 17 .4c4 0 7.1 1 9.2 3 2.2 2 3.3 4.7 3.3 8.3V32H22z" mask="url(#logo-po-d_1_)" fill-rule="evenodd" clip-rule="evenodd" fill="#00d050"/>
    </g>
    <path class="st3" d="M190 62.5h-10.2v23h-10.7v-23h-10.2v-8H190z"/>
    <g transform="translate(193 53.573)">
        <defs>
            <filter id="Adobe_OpacityMaskFilter_2_" filterUnits="userSpaceOnUse" x=".3" y=".4" width="29.3" height="32.1">
                <feColorMatrix values="1 0 0 0 0 0 1 0 0 0 0 0 1 0 0 0 0 0 1 0"/>
            </filter>
        </defs>
        <mask maskUnits="userSpaceOnUse" x=".3" y=".4" width="29.3" height="32.1" id="logo-po-f_1_">
            <g filter="url(#Adobe_OpacityMaskFilter_2_)">
                <path id="logo-po-e_1_" class="st1" d="M.3.4h29.3v32.1H.3z"/>
            </g>
        </mask>
        <path d="M14.3 25c1.3 0 2.4-.4 3.3-1.2.9-.8 1.4-1.9 1.4-3.2v-2.4l-2.5.1c-3.5.1-5.3 1.4-5.3 3.9 0 1.8 1.1 2.8 3.1 2.8zm7.9 7l-2.1-4.1h-.2c-1.4 1.8-2.9 3-4.4 3.7-1.5.7-3.4 1-5.8 1-2.9 0-5.2-.9-6.9-2.6C1.1 28.2.3 25.8.3 22.6c0-3.3 1.1-5.8 3.4-7.4 2.3-1.6 5.6-2.5 10-2.7l5.2-.2v-.4c0-2.6-1.3-3.8-3.8-3.8-2.3 0-5.1.8-8.6 2.3L3.4 3.2C7 1.3 11.6.4 17.1.4c4 0 7.1 1 9.2 3 2.2 2 3.3 4.7 3.3 8.3V32h-7.4z" mask="url(#logo-po-f_1_)" fill-rule="evenodd" clip-rule="evenodd" fill="#00d050"/>
    </g>
    <path d="M66.1.5v31H55.4v-23h-8v23H36.7V.5zM88.5 8.4c-1.6 0-2.7.6-3.3 1.7-.6 1.1-1 2.8-1 5v.8c0 2.7.4 4.6 1.1 5.8.7 1.2 1.8 1.8 3.4 1.8 1.4 0 2.4-.6 3-1.8.6-1.2.9-3.1.9-5.8 0-2.7-.3-4.6-.9-5.7C91 9 90 8.4 88.5 8.4m3.6 23.7c-1.6 0-3-.3-4.2-.8-1.2-.5-2.5-1.5-3.7-2.8h-.5c.3 2.2.5 3.5.5 4V45H73.5V.5h8.7l1.5 3.9h.5c2-3 4.7-4.5 8.2-4.5 3.4 0 6.1 1.4 8.1 4.3 2 2.8 2.9 6.7 2.9 11.7 0 5-1 8.9-3 11.8-2.1 2.9-4.8 4.4-8.3 4.4M119 16c0 2.7.4 4.7 1.1 6.1s1.9 2.1 3.6 2.1c1.7 0 2.8-.7 3.5-2.1.7-1.4 1-3.4 1-6.1 0-2.6-.3-4.6-1-6-.7-1.3-1.9-2-3.6-2-1.6 0-2.8.7-3.5 2-.7 1.3-1.1 3.3-1.1 6m20.1 0c0 5.1-1.4 9-4.1 11.9-2.7 2.8-6.5 4.3-11.4 4.3-4.7 0-8.4-1.4-11.2-4.3-2.8-2.9-4.2-6.8-4.2-11.8 0-5.1 1.4-9 4.1-11.8C115 1.4 118.8 0 123.7 0c3 0 5.7.6 8.1 1.9 2.3 1.3 4.1 3.2 5.4 5.6 1.3 2.4 1.9 5.2 1.9 8.5m46.8 15.5h-9.6V8.4c-.6 2.4-1.2 4.8-2 7.3-.7 2.5-2.4 7.8-5.1 15.8H162l-3.2-9.9c-1.1-3.3-2.2-7-3.4-11.2l-.6-2.1v23.1h-9.6V.4h14.6l2.4 7.2c.5 1.4 1.1 3.6 1.9 6.6.8 3 1.3 5.1 1.5 6.3.1-.9.8-3.3 1.9-7.3l1.1-3.7 3-9.2h14.3v31.2z" style="fill:#7129ff;fill-rule:evenodd;clip-rule:evenodd"/>
</svg>
