<svg xmlns="http://www.w3.org/2000/svg" viewBox="0 0 780 120">
    <path d="M411.32 55.62q-4.4 21.76-18.32 31.71t-34.32 5.79a45.43 45.43 0 01-21.4-10.22 38.18 38.18 0 01-11.74-19.2q-3.1-11.6-.27-25.63 4.41-21.84 18.21-31.65T377.85.81A45.65 45.65 0 01399.27 11 38.06 38.06 0 01411 30.07q3.12 11.52.29 25.55M350 43.11q-2.67 13.23.28 20.89T363 73.65q9.69 2 15.29-3.9t8.31-19.18q2.67-13.23-.28-20.73t-12.71-9.48q-9.69-2-15.3 3.73t-8.31 19" fill-rule="evenodd" fill="#00d050"/>
    <path d="M485.52 31.14v62.27H464V47.13h-16.1v46.28h-21.46V31.14zM562.9 93.41h-21.49V47.13h-12.64Q527 67.2 524.21 76.62t-7.58 13.66q-4.85 4.23-13 4.23a25.61 25.61 0 01-9.73-1.65v-16a10.14 10.14 0 004.84 1 4.58 4.58 0 004-2.56 27.69 27.69 0 002.72-8.16q1.19-5.61 2.15-14.4t1.84-21.6h53.45zM618.35 93.41l-4.12-8.25h-.44a24.33 24.33 0 01-8.85 7.37 29.16 29.16 0 01-11.65 2q-8.79 0-13.85-5.28t-5.05-14.84q0-9.94 6.92-14.81t20.06-5.47l10.39-.33v-.9q0-7.68-7.59-7.69-6.81 0-17.31 4.62l-6.21-14.18Q591.54 30 608.13 30q12 0 18.55 5.94t6.57 16.6v40.87zm-15.93-14.07a9.71 9.71 0 006.67-2.47 8.23 8.23 0 002.78-6.43V65.6l-5 .22q-10.6.39-10.6 7.8.05 5.72 6.15 5.72zM705.63 47.13h-20.5v46.28h-21.49V47.13h-20.5v-16h62.49zM756.35 93.41l-4.12-8.25h-.44a24.49 24.49 0 01-8.85 7.37 29.2 29.2 0 01-11.65 2q-8.79 0-13.85-5.28t-5.06-14.84q0-9.94 6.93-14.81t20.06-5.47l10.39-.33v-.9q0-7.68-7.59-7.69-6.81 0-17.31 4.62l-6.21-14.18Q729.53 30 746.13 30q12 0 18.55 5.94t6.56 16.6v40.87zm-15.94-14.07a9.74 9.74 0 006.68-2.47 8.23 8.23 0 002.78-6.43V65.6l-5 .22q-10.6.39-10.61 7.8c.05 3.81 2.09 5.72 6.15 5.72z" style="fill:#00d050"/>
    <path d="M67.84 31.14v62.27H46.35V47.13H30.24v46.28H8.76V31.14zM120.1 94.51a19.42 19.42 0 01-15.88-7.2h-1a79.07 79.07 0 011 8.13v25H82.73v-89.3h17.47l3 7.92h1q6-9 16.54-9A18.61 18.61 0 01137 38.62q5.88 8.57 5.88 23.52t-6.13 23.71a19.32 19.32 0 01-16.65 8.66zm-7.2-47.6q-4.73 0-6.62 3.38t-2.06 10V62q0 8 2.14 11.59a7.3 7.3 0 006.76 3.58 6.31 6.31 0 006-3.55q1.88-3.51 1.88-11.7 0-8-1.87-11.52a6.51 6.51 0 00-6.23-3.49zM214.57 62.14q0 15.27-8.21 23.82t-23 8.55q-14.19 0-22.56-8.74t-8.39-23.63q0-15.22 8.22-23.66T183.69 30a32.9 32.9 0 0116.21 3.9 26.68 26.68 0 0110.85 11.19 36 36 0 013.82 17.05zm-40.34 0q0 8 2.15 12.23a7.43 7.43 0 007.2 4.2 7.24 7.24 0 007.06-4.2q2.06-4.22 2.06-12.23t-2.09-12Q188.52 46 183.47 46a7.4 7.4 0 00-7.09 4q-2.14 4.12-2.15 12.14zM308.66 93.41h-19.24v-46.5q-1.76 7.1-4 14.65t-10.29 31.85h-14.61l-6.44-19.9q-3.24-10-6.81-22.47l-1.21-4.13v46.5h-19.23V31.14h29.4l4.83 14.57q1.38 4.17 3.8 13.27t3 12.61q.29-2.59 3.87-14.59l2.14-7.36 6-18.47h28.8z" style="fill:#7129ff"/>
</svg>
